<svg width="825" height="183" viewBox="0 0 825 183" fill="none" xmlns="http://www.w3.org/2000/svg">
<circle cx="79" cy="104" r="79" fill="url(#paint0_linear_18_56)"/>
<path d="M85 165V139L143.2 74.2L150.6 88.6H86.6V55.6H187.2V81.6L129 146.4L121.6 132H189.4V165H85ZM203.063 165V55.6H248.263V165H203.063ZM225.663 46.8C217.396 46.8 210.796 44.6 205.863 40.2C200.929 35.8 198.463 30.3333 198.463 23.8C198.463 17.2667 200.929 11.8 205.863 7.39999C210.796 2.99999 217.396 0.799992 225.663 0.799992C233.929 0.799992 240.529 2.86666 245.463 7C250.396 11.1333 252.863 16.4667 252.863 23C252.863 29.9333 250.396 35.6667 245.463 40.2C240.529 44.6 233.929 46.8 225.663 46.8ZM321.097 167C306.03 167 294.297 163.4 285.897 156.2C277.497 148.867 273.297 137.667 273.297 122.6V31H318.497V122.2C318.497 125.533 319.364 128.133 321.097 130C322.964 131.867 325.23 132.8 327.897 132.8C331.764 132.8 335.164 131.8 338.097 129.8L348.897 161.2C345.43 163.2 341.23 164.667 336.297 165.6C331.497 166.533 326.43 167 321.097 167ZM258.297 94.6V61.6H340.897V94.6H258.297ZM436.289 53.6C444.689 53.6 452.289 55.3333 459.089 58.8C465.889 62.1333 471.222 67.4 475.089 74.6C479.089 81.8 481.089 91.1333 481.089 102.6V165H435.889V110.4C435.889 103.6 434.689 98.8 432.289 96C429.889 93.0667 426.622 91.6 422.489 91.6C419.422 91.6 416.556 92.3333 413.889 93.8C411.356 95.1333 409.289 97.4 407.689 100.6C406.222 103.8 405.489 108.133 405.489 113.6V165H360.289V16.6H405.489V87.6L394.689 78.4C398.956 70.1333 404.689 63.9333 411.889 59.8C419.222 55.6667 427.356 53.6 436.289 53.6ZM500.719 165V55.6H545.919V165H500.719ZM523.319 46.8C515.052 46.8 508.452 44.6 503.519 40.2C498.585 35.8 496.119 30.3333 496.119 23.8C496.119 17.2667 498.585 11.8 503.519 7.39999C508.452 2.99999 515.052 0.799992 523.319 0.799992C531.585 0.799992 538.185 2.86666 543.119 7C548.052 11.1333 550.519 16.4667 550.519 23C550.519 29.9333 548.052 35.6667 543.119 40.2C538.185 44.6 531.585 46.8 523.319 46.8ZM632.153 165V145.6L628.953 140.4V103.6C628.953 98.2667 627.286 94.2 623.953 91.4C620.753 88.6 615.486 87.2 608.153 87.2C603.22 87.2 598.22 88 593.153 89.6C588.086 91.0667 583.753 93.1333 580.153 95.8L565.753 66C572.153 62 579.82 58.9333 588.753 56.8C597.686 54.6667 606.42 53.6 614.953 53.6C633.753 53.6 648.286 57.8 658.553 66.2C668.953 74.6 674.153 87.9333 674.153 106.2V165H632.153ZM601.153 167C592.22 167 584.753 165.467 578.753 162.4C572.753 159.333 568.22 155.267 565.153 150.2C562.086 145 560.553 139.267 560.553 133C560.553 125.933 562.353 119.933 565.953 115C569.553 110.067 575.02 106.333 582.353 103.8C589.82 101.267 599.22 100 610.553 100H633.353V121.8H617.753C612.953 121.8 609.42 122.6 607.153 124.2C605.02 125.667 603.953 127.933 603.953 131C603.953 133.533 604.886 135.667 606.753 137.4C608.753 139 611.42 139.8 614.753 139.8C617.82 139.8 620.62 139 623.153 137.4C625.82 135.667 627.753 133 628.953 129.4L634.753 142.8C633.02 150.933 629.353 157 623.753 161C618.153 165 610.62 167 601.153 167ZM769.688 53.6C778.088 53.6 785.688 55.3333 792.488 58.8C799.288 62.1333 804.621 67.4 808.488 74.6C812.488 81.8 814.488 91.1333 814.488 102.6V165H769.288V110.4C769.288 103.6 768.088 98.8 765.688 96C763.288 93.0667 760.021 91.6 755.888 91.6C752.821 91.6 749.954 92.3333 747.288 93.8C744.754 95.1333 742.688 97.4 741.088 100.6C739.621 103.8 738.888 108.133 738.888 113.6V165H693.688V55.6H736.688V87.6L728.088 78.4C732.354 70.1333 738.088 63.9333 745.288 59.8C752.621 55.6667 760.754 53.6 769.688 53.6Z" fill="#0026FF"/>
<defs>
<linearGradient id="paint0_linear_18_56" x1="158" y1="104" x2="0" y2="104" gradientUnits="userSpaceOnUse">
<stop/>
<stop offset="1" stop-color="#0026FF"/>
</linearGradient>
</defs>
</svg>
